# xmcd CD database file
#
# Track frame offsets:
#	150
#	41825
#	80889
#	127915
#	172021
#	205433
#	258775
#
# Disc length: 4102 seconds
#
# Revision: 0
# Processed by: cddbd v1.5.1PL0 Copyright (c) Steve Scherf et al.
# Submitted via: CDex 1.51
#
DISCID=61100407
DTITLE=Brad Mehldau - Cut your veins CD2
DYEAR=2000
DGENRE=Jazz
TTITLE0=O amor chegou
TTITLE1=Better days ahead
TTITLE2=But not for me
TTITLE3=Sem reposta
TTITLE4=Up from the skies
TTITLE5=Resignacao nao pra nos
TTITLE6=The logical song
EXTD=YEAR: 2000
EXTT0=
EXTT1=
EXTT2=
EXTT3=
EXTT4=
EXTT5=
EXTT6=
PLAYORDER=
